<svg xmlns="http://www.w3.org/2000/svg" width="31.256" height="43.588" viewBox="0 0 31.256 43.588">
  <path id="favicon_rouge" data-name="favicon rouge" d="M62.732,19.669a2.039,2.039,0,0,0-1.618-.737c-1.436.014-2.933,1.39-3.426,1.885l-2.666-3.049c.457-.559,2.837-3.671,1.084-5.671a2.079,2.079,0,0,0-1.623-.737c-1.445.019-2.93,1.387-3.423,1.885L48.385,10.19l.008-.017c.151-.171.341-.382.509-.57.418-.468.894-1,1.128-1.282a3.228,3.228,0,0,0,.278-3.236,2.683,2.683,0,0,0-2.575-1.53h0c-.014,0-.028-.006-.041-.006a2.678,2.678,0,0,0-2.575,1.53,3.228,3.228,0,0,0,.278,3.236c.234.286.71.814,1.128,1.282.184.2.393.438.55.616l-2.65,3.027c-.484-.5-1.945-1.882-3.4-1.9a2.106,2.106,0,0,0-1.643.754c-1.733,1.978.627,5.1,1.087,5.671L37.8,20.813c-.482-.5-1.94-1.879-3.4-1.9a2.1,2.1,0,0,0-1.645.754c-1.733,1.978.627,5.1,1.087,5.671h0c-.457.567-2.818,3.693-1.087,5.671a2.107,2.107,0,0,0,1.618.754h.028c1.461-.017,2.919-1.4,3.4-1.9l2.666,3.046c-.46.567-2.818,3.693-1.087,5.671a2.107,2.107,0,0,0,1.618.754h.025c1.458-.017,2.922-1.4,3.4-1.9l2.666,3.046a.551.551,0,0,0-.047.074c-.143.162-.314.352-.465.52-.418.468-.894,1-1.125,1.282a3.228,3.228,0,0,0-.278,3.236,2.682,2.682,0,0,0,2.575,1.53h0c.014,0,.028.006.041.006a2.678,2.678,0,0,0,2.575-1.53,3.228,3.228,0,0,0-.278-3.236c-.234-.286-.71-.814-1.128-1.282-.184-.2-.393-.437-.55-.616l2.653-3.029c.493.5,1.973,1.863,3.42,1.885h.03a2.069,2.069,0,0,0,1.6-.737c1.753-2-.627-5.112-1.084-5.671l2.666-3.049c.493.5,1.989,1.868,3.426,1.885h.025a2.078,2.078,0,0,0,1.6-.737C64.5,29,62.107,25.9,61.65,25.345c.46-.556,2.848-3.66,1.087-5.674Zm-15,20.07L45.078,36.7l2.658-3.038L50.394,36.7Zm0-28.793,2.658,3.038-2.658,3.038-2.658-3.038Zm-.655,14.4L44.423,28.38l-2.658-3.038L44.423,22.3l2.658,3.038Zm-2-3.786,2.658-3.038,2.658,3.038-2.658,3.038Zm2.658,4.535,2.658,3.038-2.658,3.038-2.658-3.038Zm.655-.748L51.049,22.3l2.658,3.038L51.049,28.38l-2.658-3.038ZM51.7,21.556l2.658-3.038,2.658,3.038-2.658,3.038Zm-.655-.748L48.391,17.77l2.658-3.038,2.658,3.038ZM47.078,17.77,44.42,20.808,41.762,17.77l2.658-3.038Zm-5.971.748,2.658,3.038-2.658,3.038-2.658-3.038Zm-.655,6.824L37.794,28.38l-2.658-3.038L37.794,22.3Zm.655.748,2.658,3.038-2.658,3.038-2.658-3.038Zm3.313,3.786,2.658,3.038L44.42,35.953l-2.658-3.038Zm6.629,6.075-2.658-3.038,2.658-3.038,2.658,3.038Zm3.313-3.786L51.7,29.129l2.658-3.038,2.658,3.038Zm3.313-3.786-2.658-3.038L57.674,22.3l2.658,3.038Zm3.459-8.461h.011a1.061,1.061,0,0,1,.842.4c1.123,1.282-.5,3.61-1,4.268l-2.65-3.027C58.808,21.058,60.107,19.919,61.133,19.919ZM54.5,12.347h.008a1.061,1.061,0,0,1,.842.4c1.12,1.279-.5,3.607-1,4.268L51.7,13.987c.476-.5,1.775-1.64,2.8-1.64ZM46.148,7.691A2.284,2.284,0,0,1,46,5.5a1.721,1.721,0,0,1,1.681-.966h0c.014,0,.028.006.041.006a1.714,1.714,0,0,1,1.681.966,2.284,2.284,0,0,1-.149,2.19c-.22.27-.688.79-1.1,1.249l-.454.509c-.132-.151-.292-.327-.46-.512-.413-.46-.881-.982-1.1-1.249Zm-6.042,5.057a1.1,1.1,0,0,1,.875-.415h0c1.032,0,2.322,1.164,2.779,1.656l-2.647,3.024c-.506-.68-2.1-3.016-1.007-4.265Zm-6.629,7.572a1.1,1.1,0,0,1,.875-.415h0c1.035,0,2.325,1.164,2.779,1.656l-2.647,3.024c-.506-.68-2.1-3.016-1.007-4.265Zm.875,10.464h0a1.107,1.107,0,0,1-.875-.415c-1.092-1.249.5-3.585,1.007-4.265l2.647,3.024C36.666,29.629,35.381,30.785,34.352,30.785Zm6.629,7.572h0a1.107,1.107,0,0,1-.875-.415c-1.092-1.249.5-3.585,1.007-4.265L43.76,36.7C43.295,37.2,42.01,38.358,40.981,38.358ZM49.312,43a2.284,2.284,0,0,1,.149,2.19,1.721,1.721,0,0,1-1.681.966h0c-.014,0-.028-.006-.041-.006a1.714,1.714,0,0,1-1.681-.966,2.284,2.284,0,0,1,.149-2.19c.22-.267.688-.79,1.1-1.249.165-.184.322-.36.457-.509.132.151.292.327.457.512.413.46.881.982,1.1,1.249Zm6.042-5.057a1.061,1.061,0,0,1-.842.4H54.5c-1.037,0-2.372-1.194-2.8-1.64l2.647-3.027C54.859,34.337,56.472,36.66,55.355,37.939Zm6.629-7.572a1.069,1.069,0,0,1-.842.4H61.13c-1.026,0-2.325-1.142-2.8-1.64L60.976,26.1c.509.666,2.124,2.985,1,4.268Z" transform="translate(-32.121 -3.55)" fill="#bd1000"/>
</svg>
