<?xml version="1.0" encoding="UTF-8"?>
<svg id="Calque_1" data-name="Calque 1" xmlns="http://www.w3.org/2000/svg" viewBox="0 0 289.47 216.52">
  <defs>
    <style>
      .cls-1 {
        fill: #d6a009;
      }

      .cls-2 {
        letter-spacing: -.08em;
      }

      .cls-3 {
        letter-spacing: -.02em;
      }

      .cls-4 {
        fill: #bd1000;
        font-family: Kodchasan-Regular, Kodchasan;
        font-size: 54.89px;
      }
    </style>
  </defs>
  <text class="cls-4" transform="translate(3.14 185.11)"><tspan x="0" y="0">Asya </tspan><tspan class="cls-2" x="149.03" y="0">F</tspan><tspan class="cls-3" x="178.02" y="0">o</tspan><tspan x="211.61" y="0">od</tspan></text>
  <path class="cls-1" d="m185.96,55.25c-1.18-1.34-2.73-2.07-4.45-2.03-3.95.04-8.07,3.82-9.43,5.18l-7.34-8.38c1.26-1.54,7.81-10.09,2.99-15.6-1.18-1.35-2.75-2.06-4.47-2.03-3.97.05-8.06,3.82-9.41,5.18l-7.35-8.4s.01-.03.02-.05c.42-.47.94-1.05,1.4-1.57,1.15-1.29,2.46-2.74,3.1-3.53,1.8-2.19,2.13-6.02.76-8.9-1.28-2.71-3.8-4.21-7.08-4.21,0,0,0,0,0,0-.04,0-.07-.01-.11-.01-3.28,0-5.8,1.49-7.08,4.21-1.36,2.88-1.04,6.71.76,8.9.64.79,1.95,2.24,3.1,3.53.5.56,1.08,1.2,1.51,1.69l-7.29,8.33c-1.33-1.38-5.35-5.17-9.36-5.22-1.72-.03-3.32.7-4.52,2.07-4.76,5.44,1.73,14.04,2.99,15.6l-7.33,8.38c-1.33-1.38-5.34-5.17-9.36-5.22-1.77-.02-3.32.69-4.53,2.07-4.77,5.44,1.73,14.04,2.99,15.6,0,0,0,0,0,0,0,0,0,0,0,0-1.26,1.56-7.75,10.15-2.99,15.6,1.19,1.36,2.72,2.07,4.45,2.07.03,0,.05,0,.08,0,4.02-.05,8.03-3.84,9.36-5.22l7.33,8.38c-1.26,1.56-7.75,10.15-2.99,15.6,1.19,1.36,2.72,2.07,4.45,2.07h.07c4.01-.05,8.03-3.84,9.36-5.22l7.33,8.38c-.05.07-.09.13-.13.2-.39.44-.86.97-1.28,1.43-1.15,1.28-2.46,2.74-3.1,3.52-1.8,2.19-2.13,6.02-.76,8.9,1.28,2.71,3.8,4.21,7.08,4.21,0,0,0,0,0,0,.04,0,.08.01.12.01,3.28,0,5.8-1.49,7.08-4.21,1.36-2.88,1.04-6.71-.76-8.9-.64-.79-1.95-2.24-3.1-3.53-.5-.56-1.08-1.2-1.51-1.69l7.29-8.33c1.35,1.37,5.42,5.13,9.41,5.18.03,0,.06,0,.09,0,1.71,0,3.22-.7,4.39-2.03,4.82-5.51-1.73-14.06-2.99-15.6l7.34-8.38c1.36,1.36,5.47,5.14,9.43,5.18.02,0,.04,0,.07,0,1.71,0,3.22-.7,4.39-2.03,4.85-5.54-1.73-14.08-2.99-15.61,1.26-1.53,7.84-10.07,2.99-15.61Zm-41.24,55.2l-7.31-8.35,7.31-8.35,7.31,8.35-7.31,8.35Zm0-79.19l7.31,8.35-7.31,8.35-7.31-8.35,7.31-8.35Zm-1.8,39.59l-7.31,8.35-7.31-8.35,7.31-8.35,7.31,8.35Zm-5.51-10.41l7.31-8.35,7.31,8.35-7.31,8.35-7.31-8.35Zm7.31,12.47l7.31,8.35-7.31,8.35-7.31-8.35,7.31-8.35Zm1.8-2.06l7.31-8.35,7.31,8.35-7.31,8.35-7.31-8.35Zm9.11-10.41l7.31-8.35,7.31,8.35-7.31,8.35-7.31-8.35Zm-1.8-2.06l-7.31-8.35,7.31-8.35,7.31,8.35-7.31,8.35Zm-10.92-8.35l-7.31,8.35-7.31-8.35,7.31-8.35,7.31,8.35Zm-16.43,2.06l7.31,8.35-7.31,8.35-7.31-8.35,7.31-8.35Zm-1.8,18.77l-7.31,8.35-7.31-8.35,7.31-8.35,7.31,8.35Zm1.8,2.06l7.31,8.35-7.31,8.35-7.31-8.35,7.31-8.35Zm9.11,10.41l7.31,8.35-7.31,8.35-7.31-8.35,7.31-8.35Zm18.23,16.71l-7.31-8.35,7.31-8.35,7.31,8.35-7.31,8.35Zm9.11-10.41l-7.31-8.35,7.31-8.35,7.31,8.35-7.31,8.35Zm9.11-10.41l-7.31-8.35,7.31-8.35,7.31,8.35-7.31,8.35Zm9.51-23.27h.03c.93,0,1.67.36,2.32,1.1,3.09,3.53-1.38,9.93-2.76,11.73l-7.28-8.32c1.31-1.38,4.88-4.51,7.7-4.51Zm-18.23-20.83h.03c.93,0,1.67.36,2.32,1.1,3.08,3.52-1.38,9.92-2.76,11.73l-7.28-8.32c1.31-1.37,4.88-4.51,7.7-4.51Zm-22.98-12.81c-1-1.22-1.4-3.93-.41-6.02.82-1.74,2.42-2.65,4.63-2.65,0,0,0,0,0,0,.04,0,.07.01.11.01,2.2,0,3.81.92,4.63,2.65.99,2.1.59,4.81-.41,6.02-.61.74-1.89,2.17-3.02,3.44-.45.51-.89.99-1.25,1.4-.37-.41-.8-.9-1.26-1.41-1.13-1.26-2.42-2.7-3.02-3.44Zm-16.62,13.91c.68-.78,1.45-1.14,2.4-1.14h0c2.84,0,6.39,3.2,7.64,4.55l-7.28,8.32c-1.39-1.87-5.77-8.29-2.77-11.73Zm-18.23,20.83c.68-.78,1.45-1.14,2.4-1.14h0c2.84,0,6.39,3.2,7.64,4.55l-7.28,8.32c-1.4-1.87-5.77-8.29-2.77-11.73Zm2.41,28.78h0c-.96,0-1.72-.36-2.4-1.14-3.01-3.44,1.37-9.86,2.77-11.73l7.28,8.32c-1.28,1.38-4.81,4.55-7.64,4.55Zm18.23,20.83h0c-.96,0-1.72-.36-2.4-1.14-3.01-3.44,1.37-9.86,2.77-11.73l7.28,8.32c-1.28,1.38-4.81,4.55-7.64,4.55Zm22.92,12.76c1,1.22,1.4,3.93.41,6.02-.82,1.74-2.42,2.65-4.63,2.65,0,0,0,0,0,0-.04,0-.08-.01-.12-.01-2.2,0-3.81-.92-4.63-2.65-.99-2.09-.59-4.8.41-6.02.6-.74,1.89-2.17,3.02-3.43.46-.51.89-.99,1.25-1.4.37.41.8.9,1.26,1.41,1.13,1.26,2.42,2.7,3.02,3.44Zm16.62-13.91c-.65.74-1.39,1.09-2.32,1.1h-.02c-2.85,0-6.52-3.29-7.7-4.51l7.28-8.32c1.4,1.83,5.84,8.22,2.76,11.73Zm18.23-20.83c-.65.74-1.39,1.09-2.32,1.1h-.03c-2.82,0-6.39-3.14-7.7-4.51l7.28-8.32c1.4,1.83,5.84,8.21,2.76,11.73Z"/>
</svg>