<?xml version="1.0" encoding="UTF-8"?>
<svg id="Calque_1" data-name="Calque 1" xmlns="http://www.w3.org/2000/svg" viewBox="0 0 289.47 216.52">
  <defs>
    <style>
      .cls-1 {
        fill: #d6a009;
      }

      .cls-2 {
        fill: #bd1000;
      }
    </style>
  </defs>
  <g>
    <path class="cls-2" d="M7.8,185.08c-.37-.38-.55-.92-.55-1.62v-21.46c0-4.98,1.4-8.87,4.2-11.67s6.69-4.2,11.67-4.2,8.82,1.41,11.64,4.23c2.82,2.82,4.23,6.7,4.23,11.64v21.46c0,.7-.18,1.23-.55,1.62-.37.38-.88.58-1.54.58-.62,0-1.13-.19-1.51-.58-.38-.38-.58-.92-.58-1.62v-12.35H11.37v12.35c0,.7-.18,1.23-.55,1.62-.37.38-.88.58-1.54.58-.62,0-1.12-.19-1.48-.58ZM34.81,167.71v-5.87c0-3.92-1.01-6.92-3.02-9.03-2.01-2.1-4.9-3.16-8.67-3.16s-6.72,1.04-8.73,3.13c-2.01,2.09-3.02,5.1-3.02,9.06v5.87h23.44Z"/>
    <path class="cls-2" d="M51.39,184.2c-2.27-.97-4.06-2.31-5.38-4.04-.26-.37-.38-.73-.38-1.1s.1-.69.3-.96c.2-.27.47-.48.8-.63.29-.11.53-.17.71-.17.33,0,.61.08.85.25.24.17.52.43.85.8,2.38,2.53,5.54,3.79,9.5,3.79,1.9,0,3.44-.33,4.61-.99,1.17-.66,1.76-1.57,1.76-2.75,0-.84-.23-1.53-.69-2.06-.46-.53-1.23-1.02-2.31-1.48-1.08-.46-2.85-1.11-5.3-1.95-2.38-.8-4.25-1.57-5.6-2.31-1.35-.73-2.36-1.56-3.02-2.5-.66-.93-.99-2.08-.99-3.43,0-2.12.92-3.82,2.77-5.1,1.85-1.28,4.31-1.92,7.38-1.92,2.27,0,4.37.39,6.31,1.18,1.94.79,3.4,1.84,4.39,3.16.29.4.44.79.44,1.15,0,.55-.29.99-.88,1.32-.37.22-.73.33-1.1.33-.62,0-1.21-.27-1.76-.82-.95-.95-2-1.66-3.13-2.11-1.13-.46-2.58-.69-4.34-.69-1.94,0-3.42.31-4.45.93-1.02.62-1.54,1.5-1.54,2.63,0,.84.21,1.51.63,2,.42.49,1.1.93,2.03,1.32.93.38,2.57.96,4.91,1.73,2.63.88,4.67,1.71,6.12,2.5,1.45.79,2.49,1.66,3.13,2.61.64.95.96,2.12.96,3.51,0,2.2-.96,3.95-2.88,5.27-1.92,1.32-4.42,1.98-7.49,1.98-2.56,0-4.98-.49-7.25-1.45Z"/>
    <path class="cls-2" d="M80.37,197.62c-2.12-.81-3.68-1.9-4.67-3.29-.26-.37-.38-.73-.38-1.1,0-.59.29-1.1.88-1.54.22-.18.55-.27.99-.27.62,0,1.21.29,1.76.88.8.95,1.98,1.71,3.54,2.28,1.55.57,3.21.85,4.97.85,3.29,0,5.9-.99,7.82-2.96,1.92-1.98,2.88-4.65,2.88-8.01v-3.73c-1.13,1.5-2.58,2.64-4.34,3.43-1.76.79-3.7,1.18-5.82,1.18-4.47,0-7.95-1.27-10.46-3.82-2.51-2.54-3.76-6.08-3.76-10.62v-11.2c0-.55.2-1.02.6-1.4.4-.38.9-.58,1.48-.58s1.07.19,1.45.58c.38.38.58.85.58,1.4v11.2c0,3.51.89,6.25,2.66,8.21,1.77,1.96,4.25,2.94,7.44,2.94s5.58-.93,7.3-2.8c1.72-1.87,2.58-4.52,2.58-7.96v-11.03c0-.8.19-1.44.58-1.89.38-.46.92-.69,1.62-.69.66,0,1.18.23,1.56.69.38.46.58,1.09.58,1.89v23.93c0,2.89-.61,5.44-1.84,7.66-1.23,2.21-2.94,3.93-5.13,5.16-2.2,1.23-4.74,1.84-7.63,1.84-2.71,0-5.12-.4-7.25-1.21Z"/>
    <path class="cls-2" d="M111.3,183.3c-2.03-1.57-3.05-3.75-3.05-6.53s1.07-4.92,3.21-6.53c2.14-1.61,5.06-2.42,8.76-2.42,2.16,0,4.07.29,5.74.88,1.66.59,2.95,1.37,3.87,2.36v-3.51c0-2.09-.69-3.68-2.06-4.78-1.37-1.1-3.38-1.65-6.01-1.65-3.4,0-6.35.8-8.84,2.42-.62.37-1.13.55-1.54.55-.37,0-.73-.15-1.1-.44-.4-.33-.6-.75-.6-1.26,0-.55.24-1.01.71-1.37,1.32-1.02,2.99-1.84,5.02-2.44,2.03-.6,4.11-.91,6.23-.91,3.88,0,6.89.88,9.03,2.64,2.14,1.76,3.21,4.23,3.21,7.41v15.81c0,1.43-.66,2.14-1.98,2.14-.59,0-1.06-.19-1.43-.58-.37-.38-.55-.89-.55-1.51v-1.98c-2.27,2.71-5.67,4.06-10.21,4.06-3.59,0-6.4-.79-8.43-2.36ZM127.2,180.69c1.79-1.08,2.69-2.48,2.69-4.2s-.83-3.05-2.5-3.98c-1.67-.93-4.02-1.4-7.05-1.4-2.56,0-4.54.49-5.93,1.46-1.39.97-2.09,2.37-2.09,4.2s.68,3.17,2.03,4.12c1.35.95,3.31,1.43,5.87,1.43,2.85,0,5.18-.54,6.97-1.62Z"/>
    <path class="cls-2" d="M157.11,185.08c-.37-.38-.55-.92-.55-1.62v-30.19c0-2.05.61-3.66,1.84-4.83,1.23-1.17,2.94-1.76,5.13-1.76h17.02c1.43,0,2.14.59,2.14,1.76,0,.51-.18.92-.55,1.21-.37.29-.9.44-1.59.44h-16.96c-.88,0-1.58.29-2.11.88-.53.59-.8,1.35-.8,2.31v11.03h15.7c1.43,0,2.14.59,2.14,1.76,0,.55-.19.97-.58,1.26s-.91.44-1.56.44h-15.7v15.7c0,.7-.18,1.23-.55,1.62-.37.38-.88.58-1.54.58-.62,0-1.12-.19-1.48-.58Z"/>
    <path class="cls-2" d="M190.49,183.73c-2.27-1.28-3.98-2.99-5.13-5.13s-1.73-4.46-1.73-6.94.58-4.8,1.73-6.94c1.15-2.14,2.86-3.85,5.13-5.13,2.27-1.28,5-1.92,8.18-1.92s5.9.64,8.15,1.92c2.25,1.28,3.95,2.99,5.11,5.13,1.15,2.14,1.73,4.46,1.73,6.94s-.58,4.8-1.73,6.94-2.85,3.85-5.11,5.13c-2.25,1.28-4.97,1.92-8.15,1.92s-5.91-.64-8.18-1.92ZM206.6,179.4c1.99-1.87,2.99-4.45,2.99-7.74s-1-5.87-2.99-7.74c-2-1.87-4.64-2.8-7.93-2.8s-5.99.93-7.99,2.8c-2,1.87-2.99,4.45-2.99,7.74s1,5.87,2.99,7.74c1.99,1.87,4.66,2.8,7.99,2.8s5.94-.93,7.93-2.8Z"/>
    <path class="cls-2" d="M224.08,183.73c-2.27-1.28-3.98-2.99-5.13-5.13s-1.73-4.46-1.73-6.94.58-4.8,1.73-6.94c1.15-2.14,2.86-3.85,5.13-5.13,2.27-1.28,5-1.92,8.18-1.92s5.9.64,8.15,1.92c2.25,1.28,3.95,2.99,5.11,5.13,1.15,2.14,1.73,4.46,1.73,6.94s-.58,4.8-1.73,6.94-2.85,3.85-5.11,5.13c-2.25,1.28-4.97,1.92-8.15,1.92s-5.91-.64-8.18-1.92ZM240.19,179.4c1.99-1.87,2.99-4.45,2.99-7.74s-1-5.87-2.99-7.74c-2-1.87-4.64-2.8-7.93-2.8s-5.99.93-7.99,2.8c-2,1.87-2.99,4.45-2.99,7.74s1,5.87,2.99,7.74c1.99,1.87,4.66,2.8,7.99,2.8s5.94-.93,7.93-2.8Z"/>
    <path class="cls-2" d="M256,181.95c-2.62-2.47-3.92-5.85-3.92-10.13,0-2.71.58-5.13,1.73-7.27,1.15-2.14,2.84-3.82,5.05-5.05,2.21-1.23,4.88-1.84,7.99-1.84,2.63,0,4.88.49,6.72,1.48,1.85.99,3.49,2.36,4.91,4.12l.06-17.62c0-.69.17-1.24.52-1.62.35-.38.85-.58,1.51-.58.62,0,1.11.19,1.46.58.35.38.52.92.52,1.62v37.82c0,.7-.17,1.23-.52,1.62-.35.38-.83.58-1.46.58s-1.12-.19-1.48-.58c-.37-.38-.55-.92-.55-1.62v-3.51c-1.28,1.87-2.92,3.29-4.91,4.25-2,.97-4.29,1.45-6.89,1.45-4.54,0-8.12-1.24-10.73-3.71ZM275.46,179.37c2.05-1.88,3.07-4.46,3.07-7.71,0-2.16-.52-4.03-1.56-5.63-1.04-1.59-2.43-2.81-4.17-3.65-1.74-.84-3.63-1.26-5.68-1.26-3.44,0-6.13.98-8.07,2.94-1.94,1.96-2.91,4.55-2.91,7.77,0,3.44.95,6.03,2.85,7.77,1.9,1.74,4.59,2.61,8.07,2.61s6.35-.94,8.4-2.83Z"/>
  </g>
  <path class="cls-1" d="M185.96,55.25c-1.18-1.34-2.73-2.07-4.45-2.03-3.95.04-8.07,3.82-9.43,5.18l-7.34-8.38c1.26-1.54,7.81-10.09,2.99-15.6-1.18-1.35-2.75-2.06-4.47-2.03-3.97.05-8.06,3.82-9.41,5.18l-7.35-8.4s.01-.03.02-.05c.42-.47.94-1.05,1.4-1.57,1.15-1.29,2.46-2.74,3.1-3.53,1.8-2.19,2.13-6.02.76-8.9-1.28-2.71-3.8-4.21-7.08-4.21,0,0,0,0,0,0-.04,0-.07-.01-.11-.01-3.28,0-5.8,1.49-7.08,4.21-1.36,2.88-1.04,6.71.76,8.9.64.79,1.95,2.24,3.1,3.53.5.56,1.08,1.2,1.51,1.69l-7.29,8.33c-1.33-1.38-5.35-5.17-9.36-5.22-1.72-.03-3.32.7-4.52,2.07-4.76,5.44,1.73,14.04,2.99,15.6l-7.33,8.38c-1.33-1.38-5.34-5.17-9.36-5.22-1.77-.02-3.32.69-4.53,2.07-4.77,5.44,1.73,14.04,2.99,15.6,0,0,0,0,0,0,0,0,0,0,0,0-1.26,1.56-7.75,10.15-2.99,15.6,1.19,1.36,2.72,2.07,4.45,2.07.03,0,.05,0,.08,0,4.02-.05,8.03-3.84,9.36-5.22l7.33,8.38c-1.26,1.56-7.75,10.15-2.99,15.6,1.19,1.36,2.72,2.07,4.45,2.07h.07c4.01-.05,8.03-3.84,9.36-5.22l7.33,8.38c-.05.07-.09.13-.13.2-.39.44-.86.97-1.28,1.43-1.15,1.28-2.46,2.74-3.1,3.52-1.8,2.19-2.13,6.02-.76,8.9,1.28,2.71,3.8,4.21,7.08,4.21,0,0,0,0,0,0,.04,0,.08.01.12.01,3.28,0,5.8-1.49,7.08-4.21,1.36-2.88,1.04-6.71-.76-8.9-.64-.79-1.95-2.24-3.1-3.53-.5-.56-1.08-1.2-1.51-1.69l7.29-8.33c1.35,1.37,5.42,5.13,9.41,5.18.03,0,.06,0,.09,0,1.71,0,3.22-.7,4.39-2.03,4.82-5.51-1.73-14.06-2.99-15.6l7.34-8.38c1.36,1.36,5.47,5.14,9.43,5.18.02,0,.04,0,.07,0,1.71,0,3.22-.7,4.39-2.03,4.85-5.54-1.73-14.08-2.99-15.61,1.26-1.53,7.84-10.07,2.99-15.61ZM144.72,110.44l-7.31-8.35,7.31-8.35,7.31,8.35-7.31,8.35ZM144.72,31.26l7.31,8.35-7.31,8.35-7.31-8.35,7.31-8.35ZM142.91,70.85l-7.31,8.35-7.31-8.35,7.31-8.35,7.31,8.35ZM137.41,60.44l7.31-8.35,7.31,8.35-7.31,8.35-7.31-8.35ZM144.72,72.91l7.31,8.35-7.31,8.35-7.31-8.35,7.31-8.35ZM146.52,70.85l7.31-8.35,7.31,8.35-7.31,8.35-7.31-8.35ZM155.63,60.44l7.31-8.35,7.31,8.35-7.31,8.35-7.31-8.35ZM153.83,58.38l-7.31-8.35,7.31-8.35,7.31,8.35-7.31,8.35ZM142.91,50.02l-7.31,8.35-7.31-8.35,7.31-8.35,7.31,8.35ZM126.49,52.09l7.31,8.35-7.31,8.35-7.31-8.35,7.31-8.35ZM124.69,70.85l-7.31,8.35-7.31-8.35,7.31-8.35,7.31,8.35ZM126.49,72.91l7.31,8.35-7.31,8.35-7.31-8.35,7.31-8.35ZM135.6,83.32l7.31,8.35-7.31,8.35-7.31-8.35,7.31-8.35ZM153.83,100.03l-7.31-8.35,7.31-8.35,7.31,8.35-7.31,8.35ZM162.95,89.62l-7.31-8.35,7.31-8.35,7.31,8.35-7.31,8.35ZM172.06,79.2l-7.31-8.35,7.31-8.35,7.31,8.35-7.31,8.35ZM181.57,55.93h.03c.93,0,1.67.36,2.32,1.1,3.09,3.53-1.38,9.93-2.76,11.73l-7.28-8.32c1.31-1.38,4.88-4.51,7.7-4.51ZM163.34,35.11h.03c.93,0,1.67.36,2.32,1.1,3.08,3.52-1.38,9.92-2.76,11.73l-7.28-8.32c1.31-1.37,4.88-4.51,7.7-4.51ZM140.36,22.3c-1-1.22-1.4-3.93-.41-6.02.82-1.74,2.42-2.65,4.63-2.65,0,0,0,0,0,0,.04,0,.07.01.11.01,2.2,0,3.81.92,4.63,2.65.99,2.1.59,4.81-.41,6.02-.61.74-1.89,2.17-3.02,3.44-.45.51-.89.99-1.25,1.4-.37-.41-.8-.9-1.26-1.41-1.13-1.26-2.42-2.7-3.02-3.44ZM123.75,36.21c.68-.78,1.45-1.14,2.4-1.14h0c2.84,0,6.39,3.2,7.64,4.55l-7.28,8.32c-1.39-1.87-5.77-8.29-2.77-11.73ZM105.52,57.03c.68-.78,1.45-1.14,2.4-1.14h0c2.84,0,6.39,3.2,7.64,4.55l-7.28,8.32c-1.4-1.87-5.77-8.29-2.77-11.73ZM107.93,85.81h0c-.96,0-1.72-.36-2.4-1.14-3.01-3.44,1.37-9.86,2.77-11.73l7.28,8.32c-1.28,1.38-4.81,4.55-7.64,4.55ZM126.15,106.64h0c-.96,0-1.72-.36-2.4-1.14-3.01-3.44,1.37-9.86,2.77-11.73l7.28,8.32c-1.28,1.38-4.81,4.55-7.64,4.55ZM149.07,119.4c1,1.22,1.4,3.93.41,6.02-.82,1.74-2.42,2.65-4.63,2.65,0,0,0,0,0,0-.04,0-.08-.01-.12-.01-2.2,0-3.81-.92-4.63-2.65-.99-2.09-.59-4.8.41-6.02.6-.74,1.89-2.17,3.02-3.43.46-.51.89-.99,1.25-1.4.37.41.8.9,1.26,1.41,1.13,1.26,2.42,2.7,3.02,3.44ZM165.69,105.5c-.65.74-1.39,1.09-2.32,1.1h-.02c-2.85,0-6.52-3.29-7.7-4.51l7.28-8.32c1.4,1.83,5.84,8.22,2.76,11.73ZM183.92,84.67c-.65.74-1.39,1.09-2.32,1.1h-.03c-2.82,0-6.39-3.14-7.7-4.51l7.28-8.32c1.4,1.83,5.84,8.21,2.76,11.73Z"/>
</svg>