<svg xmlns="http://www.w3.org/2000/svg" width="243.713" height="339.872" viewBox="0 0 243.713 339.872">
  <path id="motif-bg1" d="M238.688,125.685a15.9,15.9,0,0,0-12.616-5.75c-11.2.107-22.871,10.835-26.712,14.7l-20.79-23.772c3.562-4.355,22.12-28.621,8.453-44.219a16.209,16.209,0,0,0-12.659-5.75c-11.264.15-22.85,10.813-26.69,14.7L126.821,51.771l.064-.129c1.18-1.33,2.66-2.982,3.969-4.441,3.261-3.647,6.973-7.788,8.8-10,5.106-6.222,6.029-17.078,2.167-25.231C138.17,4.291,131.047.043,121.736.043h0c-.107,0-.215-.043-.322-.043-9.312,0-16.435,4.227-20.082,11.929C97.47,20.1,98.392,30.938,103.5,37.16c1.824,2.231,5.535,6.351,8.8,10,1.437,1.588,3.068,3.411,4.291,4.806l-20.661,23.6c-3.776-3.9-15.169-14.675-26.54-14.8A16.421,16.421,0,0,0,56.576,66.64c-13.517,15.426,4.892,39.8,8.475,44.219L44.261,134.61c-3.755-3.9-15.126-14.654-26.54-14.783a16.385,16.385,0,0,0-12.83,5.879c-13.517,15.426,4.892,39.8,8.475,44.219h0C9.8,174.345-8.6,198.718,4.891,214.145a16.427,16.427,0,0,0,12.616,5.879h.215c11.393-.129,22.764-10.878,26.54-14.783l20.79,23.751c-3.583,4.42-21.97,28.793-8.475,44.219a16.427,16.427,0,0,0,12.616,5.879h.193c11.371-.129,22.785-10.9,26.54-14.8l20.79,23.751a4.3,4.3,0,0,0-.365.579c-1.116,1.266-2.446,2.746-3.626,4.055-3.261,3.647-6.973,7.767-8.775,10-5.106,6.222-6.029,17.078-2.167,25.231,3.647,7.681,10.771,11.929,20.082,11.929h0c.107,0,.215.043.322.043,9.312,0,16.435-4.227,20.082-11.929,3.862-8.174,2.939-19.009-2.167-25.231-1.824-2.231-5.535-6.351-8.8-10-1.437-1.588-3.068-3.411-4.291-4.806L147.7,264.285c3.84,3.883,15.383,14.525,26.669,14.7h.236a16.131,16.131,0,0,0,12.444-5.75c13.667-15.619-4.892-39.864-8.453-44.219l20.79-23.772c3.84,3.862,15.512,14.568,26.712,14.7h.193a16.2,16.2,0,0,0,12.444-5.75c13.731-15.705-4.913-39.907-8.475-44.241,3.583-4.334,22.206-28.535,8.475-44.241ZM121.757,282.179l-20.726-23.687,20.726-23.687,20.726,23.687Zm0-224.507,20.726,23.687-20.726,23.687L101.031,81.358Zm-5.106,112.254L95.925,193.612,75.2,169.925l20.726-23.687,20.726,23.687ZM101.031,140.4l20.726-23.687L142.483,140.4l-20.726,23.687Zm20.726,35.358,20.726,23.687-20.726,23.687-20.726-23.687Zm5.106-5.836,20.726-23.687,20.726,23.687-20.726,23.687ZM152.7,140.4l20.726-23.687L194.147,140.4l-20.726,23.687Zm-5.106-5.836-20.726-23.687,20.726-23.687,20.726,23.687Zm-30.96-23.687L95.9,134.567,75.178,110.881,95.9,87.194Zm-46.558,5.836L90.8,140.4,70.072,164.089,49.346,140.4Zm-5.106,53.209L44.239,193.612,23.514,169.925l20.726-23.687Zm5.106,5.836L90.8,199.448,70.072,223.134,49.346,199.448ZM95.9,205.283l20.726,23.687L95.9,252.657,75.178,228.97Zm51.686,47.373L126.863,228.97l20.726-23.687,20.726,23.687Zm25.832-29.522L152.7,199.448l20.726-23.687,20.726,23.687Zm25.832-29.522-20.726-23.687,20.726-23.687,20.726,23.687Zm26.969-65.975h.086a8.272,8.272,0,0,1,6.565,3.111c8.754,10-3.926,28.149-7.831,33.277l-20.661-23.6C208.093,136.52,218.22,127.637,226.223,127.637ZM174.537,68.592h.064a8.272,8.272,0,0,1,6.565,3.111c8.732,9.977-3.9,28.128-7.831,33.277l-20.661-23.6c3.712-3.9,13.839-12.787,21.841-12.787Zm-65.16-36.3c-2.832-3.454-3.969-11.135-1.159-17.078,2.339-4.913,6.866-7.531,13.109-7.531h0c.107,0,.215.043.322.043,6.243,0,10.792,2.6,13.109,7.531,2.811,5.943,1.674,13.624-1.159,17.078-1.716,2.1-5.364,6.158-8.582,9.741-1.287,1.437-2.51,2.811-3.54,3.969-1.03-1.18-2.274-2.553-3.583-3.991-3.218-3.583-6.866-7.66-8.582-9.741ZM62.262,71.725a8.572,8.572,0,0,1,6.823-3.24h0c8.046,0,18.108,9.076,21.67,12.916L70.114,104.98c-3.948-5.3-16.37-23.515-7.853-33.256ZM10.576,130.77a8.572,8.572,0,0,1,6.823-3.24h0c8.067,0,18.13,9.076,21.67,12.916l-20.64,23.579c-3.948-5.3-16.37-23.515-7.853-33.256ZM17.4,212.364h0a8.631,8.631,0,0,1-6.823-3.24c-8.518-9.741,3.883-27.956,7.853-33.256l20.64,23.579C35.443,203.353,25.423,212.364,17.4,212.364Zm51.686,59.045h0a8.631,8.631,0,0,1-6.823-3.24c-8.518-9.741,3.883-27.956,7.853-33.256l20.64,23.579C87.128,262.4,77.109,271.409,69.085,271.409Zm64.966,36.173c2.832,3.454,3.969,11.135,1.159,17.078-2.339,4.913-6.866,7.531-13.109,7.531h0c-.107,0-.215-.043-.322-.043-6.243,0-10.792-2.6-13.109-7.531-2.811-5.943-1.674-13.624,1.159-17.078,1.716-2.081,5.364-6.158,8.561-9.741,1.287-1.437,2.51-2.811,3.562-3.969,1.03,1.18,2.274,2.553,3.562,3.991,3.218,3.583,6.866,7.66,8.582,9.741Zm47.116-39.435a8.272,8.272,0,0,1-6.565,3.111h-.064c-8.089,0-18.494-9.312-21.841-12.787l20.64-23.6C177.3,240.062,189.877,258.171,181.167,268.147ZM232.852,209.1a8.337,8.337,0,0,1-6.565,3.111H226.2c-8,0-18.13-8.9-21.841-12.787l20.64-23.6c3.969,5.192,16.563,23.279,7.831,33.277Z" transform="translate(0)" fill="#d6a009" opacity="0.5"/>
</svg>
