<?xml version="1.0" encoding="UTF-8"?>
<svg id="Calque_1" data-name="Calque 1" xmlns="http://www.w3.org/2000/svg" viewBox="0 0 177.79 165.5">
  <defs>
    <style>
      .cls-1 {
        fill: #d6a009;
      }
    </style>
  </defs>
  <path class="cls-1" d="m143.37,62.13c-1.55-1.78-3.6-2.74-5.88-2.68-5.22.05-10.66,5.05-12.45,6.85l-9.69-11.08c1.66-2.03,10.31-13.34,3.94-20.61-1.56-1.78-3.64-2.72-5.9-2.68-5.25.07-10.65,5.04-12.44,6.85l-9.72-11.1s.02-.04.03-.06c.55-.62,1.24-1.39,1.85-2.07,1.52-1.7,3.25-3.63,4.1-4.66,2.38-2.9,2.81-7.96,1.01-11.76-1.7-3.58-5.02-5.56-9.36-5.56,0,0,0,0,0,0-.05,0-.1-.02-.15-.02-4.34,0-7.66,1.97-9.36,5.56-1.8,3.81-1.37,8.86,1.01,11.76.85,1.04,2.58,2.96,4.1,4.66.67.74,1.43,1.59,2,2.24l-9.63,11c-1.76-1.82-7.07-6.84-12.37-6.9-2.27-.04-4.38.92-5.97,2.74-6.3,7.19,2.28,18.55,3.95,20.61l-9.69,11.07c-1.75-1.82-7.05-6.83-12.37-6.89-2.34-.02-4.39.92-5.98,2.74-6.3,7.19,2.28,18.55,3.95,20.61,0,0,0,0,0,0,0,0,0,0,0,0-1.66,2.06-10.24,13.42-3.95,20.61,1.57,1.79,3.6,2.74,5.88,2.74.03,0,.07,0,.1,0,5.31-.06,10.61-5.07,12.37-6.89l9.69,11.07c-1.67,2.06-10.24,13.42-3.95,20.61,1.57,1.79,3.6,2.74,5.88,2.74h.09c5.3-.06,10.62-5.08,12.37-6.9l9.69,11.07c-.07.09-.12.18-.17.27-.52.59-1.14,1.28-1.69,1.89-1.52,1.7-3.25,3.62-4.09,4.66-2.38,2.9-2.81,7.96-1.01,11.76,1.7,3.58,5.02,5.56,9.36,5.56,0,0,0,0,0,0,.05,0,.1.02.15.02,4.34,0,7.66-1.97,9.36-5.56,1.8-3.81,1.37-8.86-1.01-11.76-.85-1.04-2.58-2.96-4.1-4.66-.67-.74-1.43-1.59-2-2.24l9.64-11.01c1.79,1.81,7.17,6.77,12.43,6.85.04,0,.08,0,.11,0,2.26,0,4.26-.92,5.8-2.68,6.37-7.28-2.28-18.58-3.94-20.61l9.69-11.08c1.79,1.8,7.23,6.79,12.45,6.85.03,0,.06,0,.09,0,2.26,0,4.26-.93,5.8-2.68,6.4-7.32-2.29-18.6-3.95-20.62,1.67-2.02,10.35-13.3,3.95-20.62Zm-54.5,72.94l-9.66-11.04,9.66-11.04,9.66,11.04-9.66,11.04Zm0-104.64l9.66,11.04-9.66,11.04-9.66-11.04,9.66-11.04Zm-2.38,52.32l-9.66,11.04-9.66-11.04,9.66-11.04,9.66,11.04Zm-7.28-13.76l9.66-11.04,9.66,11.04-9.66,11.04-9.66-11.04Zm9.66,16.48l9.66,11.04-9.66,11.04-9.66-11.04,9.66-11.04Zm2.38-2.72l9.66-11.04,9.66,11.04-9.66,11.04-9.66-11.04Zm12.04-13.76l9.66-11.04,9.66,11.04-9.66,11.04-9.66-11.04Zm-2.38-2.72l-9.66-11.04,9.66-11.04,9.66,11.04-9.66,11.04Zm-14.43-11.04l-9.66,11.04-9.66-11.04,9.66-11.04,9.66,11.04Zm-21.7,2.72l9.66,11.04-9.66,11.04-9.66-11.04,9.66-11.04Zm-2.38,24.8l-9.66,11.04-9.66-11.04,9.66-11.04,9.66,11.04Zm2.38,2.72l9.66,11.04-9.66,11.04-9.66-11.04,9.66-11.04Zm12.04,13.76l9.66,11.04-9.66,11.04-9.66-11.04,9.66-11.04Zm24.09,22.08l-9.66-11.04,9.66-11.04,9.66,11.04-9.66,11.04Zm12.04-13.76l-9.66-11.04,9.66-11.04,9.66,11.04-9.66,11.04Zm12.04-13.76l-9.66-11.04,9.66-11.04,9.66,11.04-9.66,11.04Zm12.57-30.75h.04c1.23,0,2.2.47,3.06,1.45,4.08,4.66-1.83,13.12-3.65,15.51l-9.63-11c1.73-1.82,6.45-5.96,10.18-5.96Zm-24.09-27.52h.03c1.23,0,2.2.47,3.06,1.45,4.07,4.65-1.82,13.11-3.65,15.51l-9.63-11c1.73-1.82,6.45-5.96,10.18-5.96Zm-30.37-16.92c-1.32-1.61-1.85-5.19-.54-7.96,1.09-2.29,3.2-3.51,6.11-3.51,0,0,0,0,0,0,.05,0,.1.02.15.02,2.91,0,5.03,1.21,6.11,3.51,1.31,2.77.78,6.35-.54,7.96-.8.98-2.5,2.87-4,4.54-.6.67-1.17,1.31-1.65,1.85-.48-.55-1.06-1.19-1.67-1.86-1.5-1.67-3.2-3.57-4-4.54Zm-21.96,18.38c.9-1.03,1.91-1.51,3.18-1.51h0c3.75,0,8.44,4.23,10.1,6.02l-9.62,10.99c-1.84-2.47-7.63-10.96-3.66-15.5Zm-24.09,27.52c.9-1.03,1.91-1.51,3.18-1.51h0c3.76,0,8.45,4.23,10.1,6.02l-9.62,10.99c-1.84-2.47-7.63-10.96-3.66-15.5Zm3.18,38.03h0c-1.26,0-2.27-.48-3.18-1.51-3.97-4.54,1.81-13.03,3.66-15.5l9.62,10.99c-1.69,1.82-6.36,6.02-10.1,6.02Zm24.09,27.52h0c-1.26,0-2.27-.48-3.18-1.51-3.97-4.54,1.81-13.03,3.66-15.5l9.62,10.99c-1.69,1.82-6.36,6.02-10.1,6.02Zm30.28,16.86c1.32,1.61,1.85,5.19.54,7.96-1.09,2.29-3.2,3.51-6.11,3.51,0,0,0,0,0,0-.05,0-.1-.02-.15-.02-2.91,0-5.03-1.21-6.11-3.51-1.31-2.77-.78-6.35.54-7.96.8-.97,2.5-2.87,3.99-4.54.6-.67,1.17-1.31,1.66-1.85.48.55,1.06,1.19,1.66,1.86,1.5,1.67,3.2,3.57,4,4.54Zm21.96-18.38c-.86.98-1.83,1.45-3.06,1.45h-.03c-3.77,0-8.62-4.34-10.18-5.96l9.62-11c1.85,2.42,7.71,10.86,3.65,15.51Zm24.09-27.52c-.86.98-1.83,1.44-3.06,1.45h-.04c-3.73,0-8.45-4.15-10.18-5.96l9.62-11c1.85,2.42,7.72,10.85,3.65,15.51Z"/>
</svg>